%TF.GenerationSoftware,KiCad,Pcbnew,10.0.3*%
%TF.CreationDate,2026-07-09T10:20:48-04:00*%
%TF.ProjectId,led (1),6c656420-2831-4292-9e6b-696361645f70,rev?*%
%TF.SameCoordinates,Original*%
%TF.FileFunction,Copper,L1,Top*%
%TF.FilePolarity,Positive*%
%FSLAX46Y46*%
G04 Gerber Fmt 4.6, Leading zero omitted, Abs format (unit mm)*
G04 Created by KiCad (PCBNEW 10.0.3) date 2026-07-09 10:20:48*
%MOMM*%
%LPD*%
G01*
G04 APERTURE LIST*
G04 Aperture macros list*
%AMRoundRect*
0 Rectangle with rounded corners*
0 $1 Rounding radius*
0 $2 $3 $4 $5 $6 $7 $8 $9 X,Y pos of 4 corners*
0 Add a 4 corners polygon primitive as box body*
4,1,4,$2,$3,$4,$5,$6,$7,$8,$9,$2,$3,0*
0 Add four circle primitives for the rounded corners*
1,1,$1+$1,$2,$3*
1,1,$1+$1,$4,$5*
1,1,$1+$1,$6,$7*
1,1,$1+$1,$8,$9*
0 Add four rect primitives between the rounded corners*
20,1,$1+$1,$2,$3,$4,$5,0*
20,1,$1+$1,$4,$5,$6,$7,0*
20,1,$1+$1,$6,$7,$8,$9,0*
20,1,$1+$1,$8,$9,$2,$3,0*%
G04 Aperture macros list end*
%TA.AperFunction,ComponentPad*%
%ADD10R,1.800000X1.800000*%
%TD*%
%TA.AperFunction,ComponentPad*%
%ADD11C,1.800000*%
%TD*%
%TA.AperFunction,ComponentPad*%
%ADD12C,1.600000*%
%TD*%
%TA.AperFunction,ComponentPad*%
%ADD13RoundRect,0.250000X-0.550000X-0.550000X0.550000X-0.550000X0.550000X0.550000X-0.550000X0.550000X0*%
%TD*%
%TA.AperFunction,ComponentPad*%
%ADD14C,1.440000*%
%TD*%
%TA.AperFunction,SMDPad,CuDef*%
%ADD15RoundRect,0.150000X-0.825000X-0.150000X0.825000X-0.150000X0.825000X0.150000X-0.825000X0.150000X0*%
%TD*%
%TA.AperFunction,ComponentPad*%
%ADD16C,2.000000*%
%TD*%
%TA.AperFunction,ComponentPad*%
%ADD17RoundRect,0.250000X-1.750000X-1.750000X1.750000X-1.750000X1.750000X1.750000X-1.750000X1.750000X0*%
%TD*%
%TA.AperFunction,ComponentPad*%
%ADD18C,4.000000*%
%TD*%
%TA.AperFunction,ViaPad*%
%ADD19C,0.600000*%
%TD*%
%TA.AperFunction,Conductor*%
%ADD20C,0.200000*%
%TD*%
G04 APERTURE END LIST*
D10*
%TO.P,D2,1,K_1*%
%TO.N,GND*%
X88873000Y-72524000D03*
D11*
%TO.P,D2,2,A_2*%
%TO.N,TOUT*%
X91413000Y-72524000D03*
%TD*%
D12*
%TO.P,R3,1*%
%TO.N,Net-(U1-THR)*%
X95990000Y-100450000D03*
%TO.P,R3,2*%
%TO.N,Net-(U1-DIS)*%
X103610000Y-100450000D03*
%TD*%
D10*
%TO.P,D4,1,K_1*%
%TO.N,GND*%
X57885000Y-72524000D03*
D11*
%TO.P,D4,2,A_2*%
%TO.N,TOUT*%
X60425000Y-72524000D03*
%TD*%
D13*
%TO.P,C1,1*%
%TO.N,Net-(U1-THR)*%
X89513000Y-85478000D03*
D12*
%TO.P,C1,2*%
%TO.N,GND*%
X92013000Y-85478000D03*
%TD*%
D10*
%TO.P,D12,1,K_1*%
%TO.N,GND*%
X131914475Y-71997000D03*
D11*
%TO.P,D12,2,A_2*%
%TO.N,TOUT*%
X134454475Y-71997000D03*
%TD*%
D10*
%TO.P,D1,1,K_1*%
%TO.N,GND*%
X105764000Y-72524000D03*
D11*
%TO.P,D1,2,A_2*%
%TO.N,TOUT*%
X108304000Y-72524000D03*
%TD*%
D14*
%TO.P,R1,1*%
%TO.N,Net-(U1-R)*%
X122406006Y-81414000D03*
%TO.P,R1,2*%
%TO.N,Net-(U1-DIS)*%
X124946006Y-78874000D03*
%TO.P,R1,3*%
%TO.N,N/C*%
X122406006Y-76334000D03*
%TD*%
D15*
%TO.P,U1,1,GND_1*%
%TO.N,GND*%
X71798000Y-83446000D03*
%TO.P,U1,2,TR_2*%
%TO.N,Net-(U1-THR)*%
X71798000Y-84716000D03*
%TO.P,U1,3,Q_3*%
%TO.N,Net-(U1-Q)*%
X71798000Y-85986000D03*
%TO.P,U1,4,R_4*%
%TO.N,Net-(U1-R)*%
X71798000Y-87256000D03*
%TO.P,U1,5,CV_5*%
%TO.N,unconnected-(U1-CV-Pad5)*%
X76748000Y-87256000D03*
%TO.P,U1,6,THR_6*%
%TO.N,Net-(U1-THR)*%
X76748000Y-85986000D03*
%TO.P,U1,7,DIS_7*%
%TO.N,Net-(U1-DIS)*%
X76748000Y-84716000D03*
%TO.P,U1,8,VCC_8*%
%TO.N,Net-(U1-R)*%
X76748000Y-83446000D03*
%TD*%
D10*
%TO.P,D8,1,K_1*%
%TO.N,GND*%
X95660000Y-117400000D03*
D11*
%TO.P,D8,2,A_2*%
%TO.N,TOUT*%
X98200000Y-117400000D03*
%TD*%
D16*
%TO.P,SW1,1,1_1*%
%TO.N,Net-(U1-R)*%
X81183000Y-95547000D03*
X87683000Y-95547000D03*
%TO.P,SW1,2,2_2*%
%TO.N,Net-(BT1-+)*%
X81183000Y-100047000D03*
X87683000Y-100047000D03*
%TD*%
D17*
%TO.P,BT1,1,+_1*%
%TO.N,Net-(BT1-+)*%
X105261000Y-85478000D03*
D18*
%TO.P,BT1,2,-_2*%
%TO.N,GND*%
X112461000Y-85478000D03*
%TD*%
D10*
%TO.P,D10,1,K_1*%
%TO.N,GND*%
X123734006Y-104120000D03*
D11*
%TO.P,D10,2,A_2*%
%TO.N,TOUT*%
X126274006Y-104120000D03*
%TD*%
D10*
%TO.P,D7,1,K_1*%
%TO.N,GND*%
X78972000Y-113672000D03*
D11*
%TO.P,D7,2,A_2*%
%TO.N,TOUT*%
X81512000Y-113672000D03*
%TD*%
D10*
%TO.P,D3,1,K_1*%
%TO.N,GND*%
X73252000Y-72651000D03*
D11*
%TO.P,D3,2,A_2*%
%TO.N,TOUT*%
X75792000Y-72651000D03*
%TD*%
D10*
%TO.P,D5,1,K_1*%
%TO.N,GND*%
X59414000Y-88018000D03*
D11*
%TO.P,D5,2,A_2*%
%TO.N,TOUT*%
X61954000Y-88018000D03*
%TD*%
D10*
%TO.P,D9,1,K_1*%
%TO.N,GND*%
X112525000Y-114200000D03*
D11*
%TO.P,D9,2,A_2*%
%TO.N,TOUT*%
X115065000Y-114200000D03*
%TD*%
D10*
%TO.P,D13,1,K_1*%
%TO.N,GND*%
X134620000Y-44450000D03*
D11*
%TO.P,D13,2,A_2*%
%TO.N,TOUT*%
X137160000Y-44450000D03*
%TD*%
D10*
%TO.P,D6,1,K_1*%
%TO.N,GND*%
X66526000Y-102877000D03*
D11*
%TO.P,D6,2,A_2*%
%TO.N,TOUT*%
X69066000Y-102877000D03*
%TD*%
D10*
%TO.P,D11,1,K_1*%
%TO.N,GND*%
X130771475Y-89650000D03*
D11*
%TO.P,D11,2,A_2*%
%TO.N,TOUT*%
X133311475Y-89650000D03*
%TD*%
D12*
%TO.P,R2,1*%
%TO.N,TOUT*%
X95990000Y-96400000D03*
%TO.P,R2,2*%
%TO.N,Net-(U1-Q)*%
X103610000Y-96400000D03*
%TD*%
D19*
%TO.N,GND*%
X89386006Y-74429000D03*
X72241000Y-81795000D03*
X134620000Y-48895000D03*
X110391006Y-76134000D03*
X133985000Y-46355000D03*
%TO.N,TOUT*%
X80505226Y-111767000D03*
X72241006Y-74429000D03*
X74146006Y-74429000D03*
%TO.N,Net-(U1-THR)*%
X78972004Y-87764000D03*
X86211006Y-87129000D03*
X84306006Y-87179000D03*
%TO.N,Net-(U1-DIS)*%
X79289000Y-86579000D03*
%TO.N,Net-(U1-R)*%
X73257004Y-88780000D03*
X123200778Y-83478771D03*
%TO.N,Net-(U1-Q)*%
X71606006Y-85917000D03*
%TO.N,Net-(BT1-+)*%
X90021006Y-97924000D03*
X96590000Y-94114000D03*
%TD*%
%TO.N,GND*%
D20*
X133985000Y-46355000D02*
X134620000Y-46990000D01*
X72241000Y-81795000D02*
X72241000Y-83003000D01*
X134620000Y-46990000D02*
X134620000Y-48895000D01*
X88873000Y-73915994D02*
X88873000Y-72524000D01*
X89386006Y-74429000D02*
X88873000Y-73915994D01*
X72241000Y-83003000D02*
X71798000Y-83446000D01*
X110391006Y-76134000D02*
X109374000Y-76134000D01*
X109374000Y-76134000D02*
X105764000Y-72524000D01*
%TO.N,TOUT*%
X74146006Y-74429000D02*
X72241006Y-74429000D01*
X80505226Y-111767000D02*
X81512000Y-112773774D01*
X81512000Y-112773774D02*
X81512000Y-113672000D01*
%TO.N,Net-(U1-THR)*%
X74042999Y-85986000D02*
X76748000Y-85986000D01*
X86161006Y-87179000D02*
X86211006Y-87129000D01*
X84306006Y-87179000D02*
X86161006Y-87179000D01*
X72772999Y-84716000D02*
X74042999Y-85986000D01*
X77194004Y-85986000D02*
X76748000Y-85986000D01*
X71798000Y-84716000D02*
X72772999Y-84716000D01*
X78972004Y-87764000D02*
X77194004Y-85986000D01*
%TO.N,Net-(U1-DIS)*%
X76748000Y-84716000D02*
X77426000Y-84716000D01*
X77426000Y-84716000D02*
X79289000Y-86579000D01*
%TO.N,Net-(U1-R)*%
X72806899Y-85317000D02*
X70782032Y-85317000D01*
X72772999Y-87256000D02*
X73747452Y-86281547D01*
X73747452Y-86281547D02*
X73747452Y-86257552D01*
X73747452Y-86257552D02*
X72806899Y-85317000D01*
X70850032Y-84047000D02*
X76147000Y-84047000D01*
X76147000Y-84047000D02*
X76748000Y-83446000D01*
X73257004Y-88780000D02*
X73257004Y-88715004D01*
X71798000Y-87256000D02*
X72772999Y-87256000D01*
X122406006Y-82683999D02*
X122406006Y-81414000D01*
X123200778Y-83478771D02*
X122406006Y-82683999D01*
X70522000Y-84375032D02*
X70850032Y-84047000D01*
X70522000Y-85056968D02*
X70522000Y-84375032D01*
X70782032Y-85317000D02*
X70522000Y-85056968D01*
X73257004Y-88715004D02*
X71798000Y-87256000D01*
%TO.N,Net-(BT1-+)*%
X93831006Y-94114000D02*
X96590000Y-94114000D01*
X90021006Y-97924000D02*
X93831006Y-94114000D01*
%TD*%
M02*
