M48
; DRILL file KiCad 10.0.3 date 2026-07-09T09:55:34
; FORMAT={-:-/ absolute / metric / decimal}
; #@! TF.CreationDate,2026-07-09T09:55:34-04:00
; #@! TF.GenerationSoftware,Kicad,Pcbnew,10.0.3
; #@! TF.FileFunction,Plated,1,2,PTH
FMAT,2
METRIC
; #@! TA.AperFunction,Plated,PTH,ViaDrill
T1C0.300
; #@! TA.AperFunction,Plated,PTH,ComponentDrill
T2C0.800
; #@! TA.AperFunction,Plated,PTH,ComponentDrill
T3C0.900
; #@! TA.AperFunction,Plated,PTH,ComponentDrill
T4C1.100
; #@! TA.AperFunction,Plated,PTH,ComponentDrill
T5C3.000
%
G90
G05
T1
X69.215Y-85.783
X69.85Y-81.661
X69.85Y-74.295
X70.866Y-88.646
X71.755Y-74.295
X76.581Y-87.63
X76.898Y-86.445
X78.114Y-111.633
X81.915Y-87.045
X83.82Y-86.995
X86.995Y-74.295
X87.63Y-97.79
X94.199Y-93.98
X108.0Y-76.0
X120.81Y-83.345
X133.985Y-46.355
X134.62Y-48.895
T2
X87.122Y-85.344
X89.622Y-85.344
X93.599Y-96.266
X93.599Y-100.316
X101.219Y-96.266
X101.219Y-100.316
X120.015Y-76.2
X120.015Y-81.28
X122.555Y-78.74
T3
X55.494Y-72.39
X57.023Y-87.884
X58.034Y-72.39
X59.563Y-87.884
X64.135Y-102.743
X66.675Y-102.743
X70.861Y-72.517
X73.401Y-72.517
X76.581Y-113.538
X79.121Y-113.538
X86.482Y-72.39
X89.022Y-72.39
X94.615Y-119.634
X97.155Y-119.634
X103.373Y-72.39
X105.913Y-72.39
X111.633Y-114.681
X114.173Y-114.681
X125.603Y-105.156
X128.143Y-105.156
X133.985Y-90.17
X134.62Y-44.45
X135.128Y-72.517
X136.525Y-90.17
X137.16Y-44.45
X137.668Y-72.517
T4
X78.792Y-95.413
X78.792Y-99.913
X85.292Y-95.413
X85.292Y-99.913
T5
X102.87Y-85.344
X110.07Y-85.344
M30
