%TF.GenerationSoftware,KiCad,Pcbnew,10.0.3*%
%TF.CreationDate,2026-07-09T09:55:20-04:00*%
%TF.ProjectId,led (1),6c656420-2831-4292-9e6b-696361645f70,rev?*%
%TF.SameCoordinates,Original*%
%TF.FileFunction,Soldermask,Bot*%
%TF.FilePolarity,Negative*%
%FSLAX46Y46*%
G04 Gerber Fmt 4.6, Leading zero omitted, Abs format (unit mm)*
G04 Created by KiCad (PCBNEW 10.0.3) date 2026-07-09 09:55:20*
%MOMM*%
%LPD*%
G01*
G04 APERTURE LIST*
G04 Aperture macros list*
%AMRoundRect*
0 Rectangle with rounded corners*
0 $1 Rounding radius*
0 $2 $3 $4 $5 $6 $7 $8 $9 X,Y pos of 4 corners*
0 Add a 4 corners polygon primitive as box body*
4,1,4,$2,$3,$4,$5,$6,$7,$8,$9,$2,$3,0*
0 Add four circle primitives for the rounded corners*
1,1,$1+$1,$2,$3*
1,1,$1+$1,$4,$5*
1,1,$1+$1,$6,$7*
1,1,$1+$1,$8,$9*
0 Add four rect primitives between the rounded corners*
20,1,$1+$1,$2,$3,$4,$5,0*
20,1,$1+$1,$4,$5,$6,$7,0*
20,1,$1+$1,$6,$7,$8,$9,0*
20,1,$1+$1,$8,$9,$2,$3,0*%
G04 Aperture macros list end*
%ADD10C,4.000000*%
%ADD11RoundRect,0.250000X-1.750000X-1.750000X1.750000X-1.750000X1.750000X1.750000X-1.750000X1.750000X0*%
%ADD12C,1.600000*%
%ADD13RoundRect,0.250000X-0.550000X-0.550000X0.550000X-0.550000X0.550000X0.550000X-0.550000X0.550000X0*%
%ADD14C,1.800000*%
%ADD15R,1.800000X1.800000*%
%ADD16C,1.440000*%
%ADD17C,2.000000*%
G04 APERTURE END LIST*
D10*
%TO.C,BT1*%
X110069994Y-85344000D03*
D11*
X102869994Y-85344000D03*
%TD*%
D12*
%TO.C,C1*%
X89621994Y-85344000D03*
D13*
X87121994Y-85344000D03*
%TD*%
D14*
%TO.C,D1*%
X105912994Y-72390000D03*
D15*
X103372994Y-72390000D03*
%TD*%
D14*
%TO.C,D2*%
X89021994Y-72390000D03*
D15*
X86481994Y-72390000D03*
%TD*%
D14*
%TO.C,D3*%
X73400994Y-72517000D03*
D15*
X70860994Y-72517000D03*
%TD*%
D14*
%TO.C,D4*%
X58033994Y-72390000D03*
D15*
X55493994Y-72390000D03*
%TD*%
D14*
%TO.C,D5*%
X59562994Y-87884000D03*
D15*
X57022994Y-87884000D03*
%TD*%
D14*
%TO.C,D6*%
X66674994Y-102743000D03*
D15*
X64134994Y-102743000D03*
%TD*%
D14*
%TO.C,D7*%
X79120994Y-113538000D03*
D15*
X76580994Y-113538000D03*
%TD*%
D14*
%TO.C,D8*%
X97154994Y-119634000D03*
D15*
X94614994Y-119634000D03*
%TD*%
D14*
%TO.C,D9*%
X114172994Y-114681000D03*
D15*
X111632994Y-114681000D03*
%TD*%
D14*
%TO.C,D10*%
X128142994Y-105156000D03*
D15*
X125602994Y-105156000D03*
%TD*%
D14*
%TO.C,D11*%
X136524994Y-90170000D03*
D15*
X133984994Y-90170000D03*
%TD*%
D14*
%TO.C,D12*%
X137667994Y-72517000D03*
D15*
X135127994Y-72517000D03*
%TD*%
D14*
%TO.C,D13*%
X137160000Y-44450000D03*
D15*
X134620000Y-44450000D03*
%TD*%
D16*
%TO.C,R1*%
X120015000Y-76200000D03*
X122555000Y-78740000D03*
X120015000Y-81280000D03*
%TD*%
D12*
%TO.C,R2*%
X101218994Y-96266000D03*
X93598994Y-96266000D03*
%TD*%
%TO.C,R3*%
X101218994Y-100316000D03*
X93598994Y-100316000D03*
%TD*%
D17*
%TO.C,SW1*%
X85291994Y-99913000D03*
X78791994Y-99913000D03*
X85291994Y-95413000D03*
X78791994Y-95413000D03*
%TD*%
M02*
