M48
; DRILL file KiCad 10.0.3 date 2026-07-09T10:21:00
; FORMAT={-:-/ absolute / metric / decimal}
; #@! TF.CreationDate,2026-07-09T10:21:00-04:00
; #@! TF.GenerationSoftware,Kicad,Pcbnew,10.0.3
; #@! TF.FileFunction,Plated,1,2,PTH
FMAT,2
METRIC
; #@! TA.AperFunction,Plated,PTH,ViaDrill
T1C0.300
; #@! TA.AperFunction,Plated,PTH,ComponentDrill
T2C0.800
; #@! TA.AperFunction,Plated,PTH,ComponentDrill
T3C0.900
; #@! TA.AperFunction,Plated,PTH,ComponentDrill
T4C1.100
; #@! TA.AperFunction,Plated,PTH,ComponentDrill
T5C3.000
%
G90
G05
T1
X71.606Y-85.917
X72.241Y-81.795
X72.241Y-74.429
X73.257Y-88.78
X74.146Y-74.429
X78.972Y-87.764
X79.289Y-86.579
X80.505Y-111.767
X84.306Y-87.179
X86.211Y-87.129
X89.386Y-74.429
X90.021Y-97.924
X96.59Y-94.114
X110.391Y-76.134
X123.201Y-83.479
X133.985Y-46.355
X134.62Y-48.895
T2
X89.513Y-85.478
X92.013Y-85.478
X95.99Y-96.4
X95.99Y-100.45
X103.61Y-96.4
X103.61Y-100.45
X122.406Y-76.334
X122.406Y-81.414
X124.946Y-78.874
T3
X57.885Y-72.524
X59.414Y-88.018
X60.425Y-72.524
X61.954Y-88.018
X66.526Y-102.877
X69.066Y-102.877
X73.252Y-72.651
X75.792Y-72.651
X78.972Y-113.672
X81.512Y-113.672
X88.873Y-72.524
X91.413Y-72.524
X95.66Y-117.4
X98.2Y-117.4
X105.764Y-72.524
X108.304Y-72.524
X112.525Y-114.2
X115.065Y-114.2
X123.734Y-104.12
X126.274Y-104.12
X130.771Y-89.65
X131.914Y-71.997
X133.311Y-89.65
X134.454Y-71.997
X134.62Y-44.45
X137.16Y-44.45
T4
X81.183Y-95.547
X81.183Y-100.047
X87.683Y-95.547
X87.683Y-100.047
T5
X105.261Y-85.478
X112.461Y-85.478
M30
