%TF.GenerationSoftware,KiCad,Pcbnew,9.0.6*%
%TF.CreationDate,2026-04-12T12:40:32-04:00*%
%TF.ProjectId,led,6c65642e-6b69-4636-9164-5f7063625858,rev?*%
%TF.SameCoordinates,Original*%
%TF.FileFunction,Profile,NP*%
%FSLAX46Y46*%
G04 Gerber Fmt 4.6, Leading zero omitted, Abs format (unit mm)*
G04 Created by KiCad (PCBNEW 9.0.6) date 2026-04-12 12:40:32*
%MOMM*%
%LPD*%
G01*
G04 APERTURE LIST*
%TA.AperFunction,Profile*%
%ADD10C,0.050000*%
%TD*%
%ADD11C,0.050000*%
G04 APERTURE END LIST*
D10*
X152210091Y-55625998D02*
G75*
G02*
X141713338Y-68824112I-26480091J10286998D01*
G01*
X141713337Y-68824112D02*
G75*
G02*
X52776376Y-67182999I-44685343J-10931888D01*
G01*
X108076994Y-67183000D02*
X52776375Y-67183000D01*
X108076994Y-67183000D02*
G75*
G02*
X153653260Y-48352388I17653006J21844000D01*
G01*
D11*
X153653250Y-48352387D02*
X153857591Y-48409196D01*
X154060555Y-48465657D01*
X154192875Y-48502491D01*
X154324581Y-48539178D01*
X154436260Y-48570310D01*
X154547481Y-48601337D01*
X154647111Y-48629152D01*
X154746364Y-48656884D01*
X154837642Y-48682410D01*
X154928592Y-48707866D01*
X155013553Y-48731668D01*
X155098220Y-48755408D01*
X155178141Y-48777840D01*
X155257795Y-48800218D01*
X155333549Y-48821522D01*
X155409054Y-48842777D01*
X155481267Y-48863127D01*
X155553249Y-48883433D01*
X155622395Y-48902960D01*
X155691322Y-48922448D01*
X155757768Y-48941254D01*
X155824007Y-48960024D01*
X155888045Y-48978190D01*
X155951886Y-48996323D01*
X156013756Y-49013916D01*
X156075437Y-49031478D01*
X156135336Y-49048552D01*
X156195054Y-49065597D01*
X156253148Y-49082199D01*
X156311067Y-49098772D01*
X156367497Y-49114941D01*
X156423760Y-49131082D01*
X156478648Y-49146850D01*
X156533374Y-49162593D01*
X156586827Y-49177990D01*
X156640122Y-49193364D01*
X156692231Y-49208416D01*
X156744187Y-49223445D01*
X156795036Y-49238175D01*
X156845735Y-49252883D01*
X156895394Y-49267310D01*
X156944909Y-49281716D01*
X156993445Y-49295858D01*
X157041840Y-49309981D01*
X157089311Y-49323854D01*
X157136644Y-49337709D01*
X157183103Y-49351329D01*
X157229426Y-49364930D01*
X157274921Y-49378309D01*
X157320284Y-49391670D01*
X157364858Y-49404820D01*
X157409303Y-49417952D01*
X157452996Y-49430884D01*
X157496563Y-49443799D01*
X157539413Y-49456523D01*
X157582139Y-49469231D01*
X157624179Y-49481756D01*
X157666097Y-49494266D01*
X157707358Y-49506601D01*
X157748499Y-49518921D01*
X157789011Y-49531073D01*
X157829405Y-49543212D01*
X157869193Y-49555189D01*
X157908866Y-49567153D01*
X157947957Y-49578962D01*
X157986934Y-49590757D01*
X158025350Y-49602405D01*
X158063655Y-49614039D01*
X158101419Y-49625530D01*
X158139073Y-49637009D01*
X158176205Y-49648349D01*
X158213228Y-49659678D01*
X158249747Y-49670873D01*
X158286159Y-49682057D01*
X158322084Y-49693112D01*
X158357903Y-49704155D01*
X158393251Y-49715074D01*
X158428494Y-49725982D01*
X158463280Y-49736770D01*
X158497964Y-49747547D01*
X158532204Y-49758207D01*
X158566342Y-49768857D01*
X158600051Y-49779393D01*
X158633660Y-49789920D01*
X158666850Y-49800336D01*
X158699943Y-49810743D01*
X158732629Y-49821043D01*
X158765217Y-49831333D01*
X158797411Y-49841520D01*
X158829509Y-49851698D01*
X158861222Y-49861774D01*
X158892840Y-49871842D01*
X158924084Y-49881812D01*
X158955235Y-49891772D01*
X158986020Y-49901638D01*
X159016713Y-49911494D01*
X159047051Y-49921258D01*
X159077296Y-49931013D01*
X159107196Y-49940678D01*
X159137004Y-49950334D01*
X159166474Y-49959902D01*
X159195855Y-49969462D01*
X159224906Y-49978936D01*
X159253867Y-49988402D01*
X159282507Y-49997783D01*
X159311058Y-50007158D01*
X159339295Y-50016449D01*
X159367445Y-50025734D01*
X159395286Y-50034937D01*
X159423042Y-50044134D01*
X159450497Y-50053252D01*
X159477866Y-50062363D01*
X159504941Y-50071397D01*
X159531932Y-50080424D01*
X159558634Y-50089376D01*
X159585254Y-50098321D01*
X159611590Y-50107193D01*
X159637845Y-50116058D01*
X159663822Y-50124850D01*
X159689718Y-50133637D01*
X159715344Y-50142352D01*
X159740888Y-50151061D01*
X159766167Y-50159701D01*
X159791366Y-50168335D01*
X159816304Y-50176901D01*
X159841164Y-50185461D01*
X159865767Y-50193954D01*
X159890293Y-50202441D01*
X159914568Y-50210863D01*
X159938766Y-50219279D01*
X159962717Y-50227631D01*
X159986592Y-50235978D01*
X160010225Y-50244261D01*
X160033783Y-50252539D01*
X160057103Y-50260755D01*
X160080348Y-50268966D01*
X160103361Y-50277116D01*
X160126299Y-50285260D01*
X160149008Y-50293345D01*
X160171643Y-50301425D01*
X160194054Y-50309446D01*
X160216392Y-50317462D01*
X160238508Y-50325420D01*
X160260553Y-50333374D01*
X160282380Y-50341270D01*
X160304136Y-50349162D01*
X160325678Y-50356998D01*
X160347149Y-50364829D01*
X160368410Y-50372605D01*
X160389601Y-50380377D01*
X160410585Y-50388095D01*
X160431500Y-50395808D01*
X160452212Y-50403467D01*
X160472854Y-50411123D01*
X160493297Y-50418726D01*
X160513671Y-50426324D01*
X160533849Y-50433871D01*
X160553959Y-50441414D01*
X160573875Y-50448906D01*
X160593724Y-50456393D01*
X160613382Y-50463831D01*
X160632974Y-50471264D01*
X160652378Y-50478648D01*
X160671716Y-50486029D01*
X160690870Y-50493360D01*
X160709958Y-50500687D01*
X160728864Y-50507967D01*
X160747705Y-50515243D01*
X160766367Y-50522471D01*
X160784964Y-50529695D01*
X160803386Y-50536873D01*
X160821743Y-50544047D01*
X160839926Y-50551175D01*
X160858046Y-50558300D01*
X160875995Y-50565379D01*
X160893881Y-50572454D01*
X160911599Y-50579485D01*
X160929254Y-50586512D01*
X160946743Y-50593495D01*
X160964169Y-50600474D01*
X160981433Y-50607410D01*
X160998634Y-50614343D01*
X161015675Y-50621232D01*
X161032654Y-50628118D01*
X161049474Y-50634961D01*
X161066234Y-50641802D01*
X161082837Y-50648599D01*
X161099380Y-50655395D01*
X161115768Y-50662148D01*
X161132097Y-50668898D01*
X161148274Y-50675607D01*
X161164391Y-50682314D01*
X161180358Y-50688979D01*
X161196266Y-50695642D01*
X161212026Y-50702264D01*
X161227729Y-50708884D01*
X161243284Y-50715464D01*
X161258783Y-50722041D01*
X161274136Y-50728579D01*
X161289433Y-50735114D01*
X161304587Y-50741610D01*
X161319685Y-50748104D01*
X161334642Y-50754559D01*
X161349543Y-50761012D01*
X161364306Y-50767426D01*
X161379012Y-50773839D01*
X161393582Y-50780213D01*
X161408097Y-50786585D01*
X161422476Y-50792920D01*
X161436801Y-50799252D01*
X161450992Y-50805548D01*
X161465129Y-50811841D01*
X161479135Y-50818098D01*
X161493087Y-50824352D01*
X161506908Y-50830571D01*
X161520677Y-50836787D01*
X161534317Y-50842967D01*
X161547904Y-50849146D01*
X161561364Y-50855289D01*
X161574772Y-50861430D01*
X161588055Y-50867535D01*
X161601286Y-50873639D01*
X161614393Y-50879708D01*
X161627449Y-50885775D01*
X161640383Y-50891808D01*
X161653266Y-50897838D01*
X161666028Y-50903835D01*
X161678739Y-50909830D01*
X161691332Y-50915791D01*
X161703874Y-50921750D01*
X161716299Y-50927676D01*
X161728674Y-50933600D01*
X161740933Y-50939491D01*
X161753142Y-50945380D01*
X161765237Y-50951236D01*
X161777282Y-50957091D01*
X161789215Y-50962913D01*
X161801098Y-50968734D01*
X161812871Y-50974522D01*
X161824594Y-50980308D01*
X161836208Y-50986063D01*
X161847773Y-50991816D01*
X161859230Y-50997538D01*
X161870638Y-51003258D01*
X161881940Y-51008946D01*
X161893193Y-51014633D01*
X161904341Y-51020289D01*
X161915442Y-51025944D01*
X161926438Y-51031568D01*
X161937387Y-51037190D01*
X161948233Y-51042782D01*
X161959032Y-51048372D01*
X161969730Y-51053932D01*
X161980381Y-51059491D01*
X161990931Y-51065019D01*
X162001436Y-51070546D01*
X162011841Y-51076044D01*
X162022200Y-51081540D01*
X162032461Y-51087007D01*
X162042677Y-51092472D01*
X162052796Y-51097909D01*
X162062871Y-51103343D01*
X162072849Y-51108749D01*
X162082783Y-51114154D01*
X162092622Y-51119530D01*
X162102417Y-51124905D01*
X162112118Y-51130251D01*
X162121776Y-51135596D01*
X162131341Y-51140912D01*
X162140863Y-51146228D01*
X162150293Y-51151515D01*
X162159681Y-51156801D01*
X162168978Y-51162060D01*
X162178233Y-51167317D01*
X162187398Y-51172547D01*
X162196521Y-51177776D01*
X162205556Y-51182977D01*
X162214549Y-51188177D01*
X162223454Y-51193350D01*
X162232319Y-51198522D01*
X162241097Y-51203667D01*
X162249834Y-51208811D01*
X162258485Y-51213928D01*
X162267096Y-51219045D01*
X162275623Y-51224134D01*
X162284110Y-51229223D01*
X162292513Y-51234285D01*
X162300876Y-51239347D01*
X162309157Y-51244382D01*
X162317398Y-51249417D01*
X162325558Y-51254425D01*
X162333678Y-51259433D01*
X162341719Y-51264414D01*
X162349720Y-51269395D01*
X162357642Y-51274351D01*
X162365524Y-51279306D01*
X162373329Y-51284235D01*
X162381095Y-51289163D01*
X162388784Y-51294066D01*
X162396435Y-51298969D01*
X162404009Y-51303846D01*
X162411545Y-51308723D01*
X162419006Y-51313575D01*
X162426429Y-51318426D01*
X162433778Y-51323253D01*
X162441089Y-51328079D01*
X162448327Y-51332880D01*
X162455528Y-51337681D01*
X162462656Y-51342457D01*
X162469747Y-51347233D01*
X162476766Y-51351985D01*
X162483749Y-51356736D01*
X162490660Y-51361463D01*
X162497536Y-51366189D01*
X162504342Y-51370892D01*
X162511111Y-51375594D01*
X162517812Y-51380273D01*
X162524476Y-51384951D01*
X162531073Y-51389606D01*
X162537634Y-51394260D01*
X162544127Y-51398891D01*
X162550585Y-51403521D01*
X162556977Y-51408129D01*
X162563334Y-51412735D01*
X162569625Y-51417319D01*
X162575882Y-51421903D01*
X162582073Y-51426464D01*
X162588230Y-51431024D01*
X162594323Y-51435562D01*
X162600382Y-51440099D01*
X162606377Y-51444614D01*
X162612339Y-51449128D01*
X162618238Y-51453621D01*
X162624104Y-51458113D01*
X162629907Y-51462582D01*
X162635678Y-51467052D01*
X162641387Y-51471499D01*
X162647064Y-51475946D01*
X162652680Y-51480372D01*
X162658263Y-51484797D01*
X162663787Y-51489201D01*
X162669278Y-51493604D01*
X162674711Y-51497986D01*
X162680111Y-51502367D01*
X162685454Y-51506727D01*
X162690764Y-51511087D01*
X162696017Y-51515426D01*
X162701238Y-51519765D01*
X162706403Y-51524082D01*
X162711536Y-51528400D01*
X162716613Y-51532697D01*
X162721659Y-51536993D01*
X162726651Y-51541269D01*
X162731610Y-51545544D01*
X162736516Y-51549800D01*
X162741391Y-51554055D01*
X162746212Y-51558289D01*
X162751002Y-51562524D01*
X162755740Y-51566738D01*
X162760447Y-51570952D01*
X162765102Y-51575147D01*
X162769726Y-51579341D01*
X162774299Y-51583515D01*
X162778842Y-51587689D01*
X162783335Y-51591844D01*
X162787797Y-51595998D01*
X162792210Y-51600133D01*
X162796592Y-51604268D01*
X162800926Y-51608383D01*
X162805229Y-51612499D01*
X162809484Y-51616595D01*
X162813710Y-51620691D01*
X162817888Y-51624769D01*
X162822037Y-51628846D01*
X162826138Y-51632904D01*
X162830211Y-51636962D01*
X162834236Y-51641002D01*
X162838233Y-51645041D01*
X162842184Y-51649062D01*
X162846106Y-51653083D01*
X162849983Y-51657086D01*
X162853832Y-51661089D01*
X162857636Y-51665073D01*
X162861411Y-51669058D01*
X162865143Y-51673024D01*
X162868846Y-51676991D01*
X162872506Y-51680940D01*
X162876138Y-51684888D01*
X162879727Y-51688820D01*
X162883289Y-51692751D01*
X162886808Y-51696664D01*
X162890300Y-51700578D01*
X162893750Y-51704474D01*
X162897173Y-51708371D01*
X162900554Y-51712250D01*
X162903909Y-51716129D01*
X162907223Y-51719992D01*
X162910510Y-51723854D01*
X162913757Y-51727700D01*
X162916977Y-51731545D01*
X162920158Y-51735374D01*
X162923312Y-51739203D01*
X162926427Y-51743016D01*
X162929517Y-51746829D01*
X162932567Y-51750626D01*
X162935592Y-51754422D01*
X162938578Y-51758203D01*
X162941539Y-51761983D01*
X162944462Y-51765748D01*
X162947359Y-51769513D01*
X162950220Y-51773262D01*
X162953055Y-51777012D01*
X162955853Y-51780745D01*
X162958627Y-51784479D01*
X162961364Y-51788198D01*
X162964076Y-51791916D01*
X162966753Y-51795620D01*
X162969404Y-51799324D01*
X162972021Y-51803013D01*
X162974613Y-51806701D01*
X162977170Y-51810376D01*
X162979703Y-51814050D01*
X162982202Y-51817709D01*
X162984676Y-51821369D01*
X162987117Y-51825015D01*
X162989533Y-51828660D01*
X162991916Y-51832292D01*
X162994275Y-51835923D01*
X162996602Y-51839541D01*
X162998904Y-51843159D01*
X163001174Y-51846763D01*
X163003421Y-51850367D01*
X163005635Y-51853957D01*
X163007826Y-51857548D01*
X163009986Y-51861126D01*
X163012122Y-51864703D01*
X163014227Y-51868267D01*
X163016308Y-51871832D01*
X163018359Y-51875384D01*
X163020387Y-51878935D01*
X163022385Y-51882474D01*
X163024360Y-51886013D01*
X163026305Y-51889540D01*
X163028226Y-51893067D01*
X163030119Y-51896582D01*
X163031989Y-51900096D01*
X163033830Y-51903599D01*
X163035648Y-51907102D01*
X163037437Y-51910592D01*
X163039204Y-51914083D01*
X163040943Y-51917563D01*
X163042660Y-51921042D01*
X163044348Y-51924511D01*
X163046014Y-51927979D01*
X163047653Y-51931436D01*
X163049270Y-51934893D01*
X163050859Y-51938340D01*
X163052426Y-51941786D01*
X163053967Y-51945222D01*
X163055486Y-51948658D01*
X163056978Y-51952083D01*
X163058448Y-51955509D01*
X163059892Y-51958924D01*
X163061315Y-51962339D01*
X163062711Y-51965745D01*
X163064086Y-51969150D01*
X163065436Y-51972546D01*
X163066764Y-51975942D01*
X163068066Y-51979328D01*
X163069348Y-51982714D01*
X163070604Y-51986091D01*
X163071839Y-51989469D01*
X163073050Y-51992837D01*
X163074239Y-51996205D01*
X163075404Y-51999565D01*
X163076548Y-52002924D01*
X163077667Y-52006275D01*
X163078766Y-52009626D01*
X163079841Y-52012969D01*
X163080895Y-52016312D01*
X163081925Y-52019647D01*
X163082934Y-52022982D01*
X163083920Y-52026309D01*
X163084885Y-52029636D01*
X163085828Y-52032956D01*
X163086749Y-52036276D01*
X163087648Y-52039588D01*
X163088526Y-52042901D01*
X163089381Y-52046206D01*
X163090216Y-52049512D01*
X163091028Y-52052811D01*
X163091820Y-52056110D01*
X163092589Y-52059402D01*
X163093338Y-52062694D01*
X163094065Y-52065981D01*
X163094772Y-52069267D01*
X163095457Y-52072547D01*
X163096121Y-52075827D01*
X163096764Y-52079102D01*
X163097386Y-52082376D01*
X163097987Y-52085645D01*
X163098568Y-52088915D01*
X163099127Y-52092179D01*
X163099666Y-52095443D01*
X163100184Y-52098702D01*
X163100682Y-52101961D01*
X163101159Y-52105215D01*
X163101615Y-52108470D01*
X163102051Y-52111720D01*
X163102467Y-52114970D01*
X163102861Y-52118216D01*
X163103236Y-52121462D01*
X163103590Y-52124704D01*
X163103924Y-52127946D01*
X163104238Y-52131184D01*
X163104531Y-52134423D01*
X163104804Y-52137658D01*
X163105057Y-52140893D01*
X163105289Y-52144125D01*
X163105502Y-52147357D01*
X163105694Y-52150587D01*
X163105866Y-52153816D01*
X163106018Y-52157043D01*
X163106150Y-52160270D01*
X163106262Y-52163494D01*
X163106354Y-52166719D01*
X163106426Y-52169942D01*
X163106478Y-52173164D01*
X163106510Y-52176385D01*
X163106521Y-52179606D01*
X163106513Y-52182825D01*
X163106485Y-52186045D01*
X163106437Y-52189263D01*
X163106368Y-52192481D01*
X163106280Y-52195699D01*
X163106172Y-52198916D01*
X163106043Y-52202133D01*
X163105895Y-52205349D01*
X163105727Y-52208566D01*
X163105538Y-52211782D01*
X163105330Y-52214998D01*
X163105101Y-52218214D01*
X163104853Y-52221431D01*
X163104584Y-52224647D01*
X163104296Y-52227864D01*
X163103987Y-52231080D01*
X163103658Y-52234298D01*
X163103309Y-52237515D01*
X163102550Y-52243952D01*
X163101711Y-52250391D01*
X163100790Y-52256833D01*
X163099788Y-52263278D01*
X163098704Y-52269728D01*
X163097539Y-52276182D01*
X163096291Y-52282641D01*
X163094960Y-52289105D01*
X163093547Y-52295575D01*
X163092050Y-52302052D01*
X163090469Y-52308536D01*
X163088804Y-52315027D01*
X163087054Y-52321526D01*
X163085219Y-52328034D01*
X163083299Y-52334551D01*
X163081292Y-52341077D01*
X163079198Y-52347613D01*
X163077017Y-52354159D01*
X163074748Y-52360716D01*
X163072390Y-52367285D01*
X163069942Y-52373865D01*
X163067405Y-52380458D01*
X163064777Y-52387063D01*
X163062057Y-52393681D01*
X163059246Y-52400313D01*
X163056341Y-52406959D01*
X163053343Y-52413620D01*
X163050250Y-52420295D01*
X163047061Y-52426986D01*
X163043777Y-52433692D01*
X163040395Y-52440415D01*
X163036915Y-52447154D01*
X163033336Y-52453910D01*
X163029658Y-52460683D01*
X163025878Y-52467474D01*
X163021997Y-52474284D01*
X163018013Y-52481111D01*
X163013925Y-52487958D01*
X163009732Y-52494824D01*
X163005433Y-52501710D01*
X163001028Y-52508615D01*
X162996514Y-52515541D01*
X162991891Y-52522488D01*
X162987157Y-52529456D01*
X162982313Y-52536445D01*
X162977355Y-52543457D01*
X162972284Y-52550490D01*
X162967098Y-52557546D01*
X162961795Y-52564624D01*
X162956375Y-52571726D01*
X162950837Y-52578851D01*
X162945178Y-52586000D01*
X162939398Y-52593172D01*
X162933496Y-52600370D01*
X162927469Y-52607592D01*
X162921317Y-52614839D01*
X162915039Y-52622111D01*
X162908632Y-52629409D01*
X162902097Y-52636732D01*
X162895430Y-52644082D01*
X162888631Y-52651458D01*
X162881699Y-52658861D01*
X162874631Y-52666291D01*
X162867427Y-52673748D01*
X162860085Y-52681233D01*
X162852603Y-52688746D01*
X162844981Y-52696286D01*
X162837215Y-52703855D01*
X162829306Y-52711452D01*
X162821250Y-52719078D01*
X162813048Y-52726734D01*
X162804696Y-52734418D01*
X162796194Y-52742132D01*
X162787540Y-52749876D01*
X162778732Y-52757650D01*
X162769768Y-52765454D01*
X162760648Y-52773288D01*
X162751368Y-52781154D01*
X162741929Y-52789050D01*
X162732327Y-52796977D01*
X162722561Y-52804936D01*
X162712629Y-52812926D01*
X162702530Y-52820948D01*
X162692261Y-52829002D01*
X162681822Y-52837089D01*
X162671209Y-52845207D01*
X162660423Y-52853359D01*
X162649459Y-52861543D01*
X162638317Y-52869761D01*
X162626995Y-52878011D01*
X162615491Y-52886296D01*
X162603803Y-52894613D01*
X162591929Y-52902965D01*
X162579867Y-52911351D01*
X162567616Y-52919771D01*
X162555172Y-52928226D01*
X162542535Y-52936715D01*
X162529703Y-52945239D01*
X162516672Y-52953798D01*
X162503442Y-52962392D01*
X162490010Y-52971022D01*
X162476375Y-52979688D01*
X162462533Y-52988389D01*
X162448484Y-52997126D01*
X162434225Y-53005900D01*
X162419753Y-53014709D01*
X162405067Y-53023556D01*
X162390165Y-53032439D01*
X162375044Y-53041359D01*
X162359703Y-53050316D01*
X162344139Y-53059310D01*
X162328349Y-53068342D01*
X162312333Y-53077411D01*
X162296086Y-53086519D01*
X162279608Y-53095664D01*
X162262896Y-53104847D01*
X162245948Y-53114069D01*
X162228761Y-53123330D01*
X162211333Y-53132629D01*
X162193661Y-53141967D01*
X162175744Y-53151344D01*
X162157579Y-53160761D01*
X162139164Y-53170217D01*
X162120496Y-53179712D01*
X162101573Y-53189248D01*
X162082392Y-53198823D01*
X162062951Y-53208439D01*
X162043248Y-53218095D01*
X162023280Y-53227791D01*
X162003044Y-53237529D01*
X161982539Y-53247307D01*
X161961760Y-53257126D01*
X161940707Y-53266987D01*
X161919376Y-53276889D01*
X161897765Y-53286833D01*
X161875872Y-53296818D01*
X161853692Y-53306846D01*
X161831225Y-53316916D01*
X161808467Y-53327028D01*
X161785416Y-53337183D01*
X161762069Y-53347381D01*
X161738423Y-53357622D01*
X161714475Y-53367906D01*
X161690223Y-53378233D01*
X161665665Y-53388604D01*
X161640796Y-53399019D01*
X161615615Y-53409477D01*
X161590119Y-53419980D01*
X161564304Y-53430527D01*
X161538168Y-53441119D01*
X161511709Y-53451756D01*
X161484922Y-53462437D01*
X161457806Y-53473164D01*
X161430357Y-53483936D01*
X161402573Y-53494753D01*
X161374450Y-53505617D01*
X161345985Y-53516526D01*
X161317176Y-53527482D01*
X161288019Y-53538484D01*
X161258511Y-53549533D01*
X161228649Y-53560629D01*
X161198431Y-53571771D01*
X161167853Y-53582961D01*
X161136911Y-53594199D01*
X161105603Y-53605484D01*
X161073926Y-53616817D01*
X161041876Y-53628199D01*
X161009450Y-53639628D01*
X160976645Y-53651107D01*
X160943457Y-53662634D01*
X160909884Y-53674211D01*
X160875922Y-53685837D01*
X160841567Y-53697512D01*
X160806817Y-53709237D01*
X160771667Y-53721012D01*
X160736115Y-53732838D01*
X160700157Y-53744714D01*
X160663789Y-53756641D01*
X160627009Y-53768619D01*
X160589812Y-53780648D01*
X160552195Y-53792729D01*
X160514155Y-53804862D01*
X160475688Y-53817047D01*
X160436790Y-53829284D01*
X160397457Y-53841573D01*
X160357687Y-53853916D01*
X160317475Y-53866311D01*
X160276818Y-53878760D01*
X160235712Y-53891263D01*
X160194153Y-53903820D01*
X160152137Y-53916430D01*
X160109661Y-53929096D01*
X160066721Y-53941816D01*
X160023312Y-53954591D01*
X159979432Y-53967421D01*
X159935075Y-53980308D01*
X159890239Y-53993250D01*
X159844919Y-54006248D01*
X159799111Y-54019303D01*
X159752811Y-54032414D01*
X159706016Y-54045583D01*
X159658720Y-54058809D01*
X159610920Y-54072093D01*
X159562612Y-54085435D01*
X159513791Y-54098836D01*
X159464454Y-54112295D01*
X159414596Y-54125813D01*
X159364212Y-54139391D01*
X159313299Y-54153028D01*
X159261853Y-54166725D01*
X159209868Y-54180482D01*
X159157340Y-54194301D01*
X159104266Y-54208180D01*
X159050640Y-54222120D01*
X158996458Y-54236123D01*
X158941716Y-54250187D01*
X158886408Y-54264314D01*
X158830531Y-54278503D01*
X158774080Y-54292756D01*
X158717050Y-54307072D01*
X158659436Y-54321452D01*
X158601233Y-54335896D01*
X158542438Y-54350405D01*
X158483045Y-54364979D01*
X158423049Y-54379618D01*
X158362445Y-54394323D01*
X158301229Y-54409094D01*
X158239395Y-54423932D01*
X158176939Y-54438836D01*
X158113855Y-54453808D01*
X158050139Y-54468848D01*
X157985785Y-54483956D01*
X157920788Y-54499133D01*
X157855143Y-54514378D01*
X157788845Y-54529693D01*
X157721889Y-54545078D01*
X157654268Y-54560533D01*
X157585979Y-54576059D01*
X157517015Y-54591656D01*
X157447371Y-54607324D01*
X157377042Y-54623065D01*
X157306022Y-54638878D01*
X157234305Y-54654764D01*
X157161887Y-54670723D01*
X157088760Y-54686757D01*
X157014921Y-54702865D01*
X156940362Y-54719047D01*
X156865078Y-54735305D01*
X156789063Y-54751639D01*
X156712312Y-54768049D01*
X156634819Y-54784536D01*
X156556577Y-54801100D01*
X156477581Y-54817742D01*
X156397824Y-54834462D01*
X156317300Y-54851261D01*
X156236004Y-54868139D01*
X156153928Y-54885098D01*
X156071068Y-54902137D01*
X155987415Y-54919256D01*
X155902965Y-54936457D01*
X155817711Y-54953741D01*
X155731645Y-54971107D01*
X155644763Y-54988556D01*
X155557056Y-55006088D01*
X155468519Y-55023705D01*
X155379145Y-55041407D01*
X155288927Y-55059195D01*
X155197858Y-55077068D01*
X155105931Y-55095028D01*
X155013140Y-55113076D01*
X154919477Y-55131211D01*
X154824936Y-55149435D01*
X154729510Y-55167747D01*
X154633190Y-55186150D01*
X154535971Y-55204643D01*
X154437844Y-55223227D01*
X154338803Y-55241902D01*
X154238840Y-55260670D01*
X154137948Y-55279531D01*
X154036118Y-55298485D01*
X153933344Y-55317534D01*
X153829618Y-55336678D01*
X153724932Y-55355917D01*
X153619278Y-55375253D01*
X153512649Y-55394685D01*
X153405036Y-55414216D01*
X153296432Y-55433845D01*
X153186828Y-55453574D01*
X153076217Y-55473402D01*
X152964589Y-55493331D01*
X152851938Y-55513361D01*
X152738254Y-55533494D01*
X152623529Y-55553730D01*
X152507754Y-55574069D01*
X152390921Y-55594513D01*
X152273021Y-55615062D01*
X152210090Y-55625998D01*
M02*
